<svg width="325" height="64" viewBox="0 0 325 64" fill="none" xmlns="http://www.w3.org/2000/svg">
<circle cx="33.2803" cy="32" r="24" stroke="black" stroke-width="3.5"/>
<path d="M24.6396 9.19922L24.6396 54.7992" stroke="black" stroke-width="3.5"/>
<path d="M16.96 14L16.96 50" stroke="black" stroke-width="3.5"/>
<mask id="mask0_964_813" style="mask-type:alpha" maskUnits="userSpaceOnUse" x="30" y="6" width="53" height="52">
<path d="M80.3198 32C80.3198 45.2548 69.5747 56 56.3198 56C43.065 56 32.3198 45.2548 32.3198 32C32.3198 18.7452 43.065 8 56.3198 8C69.5747 8 80.3198 18.7452 80.3198 32Z" stroke="black" stroke-width="3.5"/>
<path d="M72.6398 32C72.6398 41.0133 65.3331 48.32 56.3198 48.32C47.3065 48.32 39.9998 41.0133 39.9998 32C39.9998 22.9867 47.3065 15.68 56.3198 15.68C65.3331 15.68 72.6398 22.9867 72.6398 32Z" stroke="black" stroke-width="3.5"/>
<path d="M64.9598 32C64.9598 36.7717 61.0916 40.64 56.3198 40.64C51.5481 40.64 47.6798 36.7717 47.6798 32C47.6798 27.2283 51.5481 23.36 56.3198 23.36C61.0916 23.36 64.9598 27.2283 64.9598 32Z" stroke="black" stroke-width="3.5"/>
</mask>
<g mask="url(#mask0_964_813)">
<circle cx="33.2803" cy="32" r="24" fill="black" stroke="black" stroke-width="2.66667"/>
</g>
<path d="M79.0693 19.4443H84.2744V28.751L91.6131 19.4443H97.8114L88.3576 31.5099L98.7311 46.5H92.6247L84.2744 34.4896V46.5H79.0693V19.4443ZM116.614 37.9474H100.484C100.717 39.3698 101.336 40.504 102.341 41.35C103.359 42.1838 104.653 42.6007 106.222 42.6007C108.098 42.6007 109.711 41.9447 111.059 40.6327L115.29 42.6191C114.235 44.1151 112.972 45.2248 111.501 45.9482C110.029 46.6594 108.282 47.015 106.259 47.015C103.12 47.015 100.563 46.0279 98.5891 44.0538C96.6149 42.0674 95.6279 39.5843 95.6279 36.6047C95.6279 33.5515 96.6088 31.0195 98.5707 29.0085C100.545 26.9853 103.016 25.9737 105.983 25.9737C109.134 25.9737 111.697 26.9853 113.671 29.0085C115.645 31.0195 116.632 33.6803 116.632 36.991L116.614 37.9474ZM111.574 33.993C111.243 32.8771 110.587 31.9698 109.606 31.2708C108.638 30.5719 107.51 30.2224 106.222 30.2224C104.824 30.2224 103.598 30.6148 102.544 31.3996C101.881 31.8901 101.268 32.7545 100.704 33.993H111.574ZM138.485 37.9474H122.355C122.588 39.3698 123.207 40.504 124.212 41.35C125.23 42.1838 126.524 42.6007 128.093 42.6007C129.969 42.6007 131.582 41.9447 132.93 40.6327L137.161 42.6191C136.106 44.1151 134.843 45.2248 133.372 45.9482C131.901 46.6594 130.153 47.015 128.13 47.015C124.991 47.015 122.434 46.0279 120.46 44.0538C118.486 42.0674 117.499 39.5843 117.499 36.6047C117.499 33.5515 118.48 31.0195 120.442 29.0085C122.416 26.9853 124.887 25.9737 127.854 25.9737C131.005 25.9737 133.568 26.9853 135.542 29.0085C137.516 31.0195 138.503 33.6803 138.503 36.991L138.485 37.9474ZM133.445 33.993C133.114 32.8771 132.458 31.9698 131.477 31.2708C130.509 30.5719 129.381 30.2224 128.093 30.2224C126.695 30.2224 125.469 30.6148 124.415 31.3996C123.753 31.8901 123.139 32.7545 122.575 33.993H133.445ZM144.539 26.4887V28.6958C145.447 27.7885 146.428 27.1079 147.482 26.6543C148.537 26.2006 149.665 25.9737 150.866 25.9737C153.478 25.9737 155.697 26.9608 157.525 28.935C159.352 30.9091 160.265 33.4412 160.265 36.5311C160.265 39.5108 159.321 42.006 157.433 44.017C155.544 46.0157 153.306 47.015 150.719 47.015C149.567 47.015 148.494 46.8127 147.5 46.408C146.507 45.9911 145.52 45.3167 144.539 44.3848V53.8203H139.555V26.4887H144.539ZM149.818 30.6087C148.236 30.6087 146.924 31.1482 145.882 32.2273C144.84 33.3063 144.319 34.7164 144.319 36.4576C144.319 38.2355 144.84 39.6763 145.882 40.7799C146.924 41.8712 148.236 42.4168 149.818 42.4168C151.351 42.4168 152.638 41.8589 153.68 40.7431C154.735 39.6273 155.262 38.2049 155.262 36.476C155.262 34.7593 154.747 33.3553 153.717 32.264C152.687 31.1605 151.387 30.6087 149.818 30.6087ZM168.47 29.0821H163.835V26.5255C163.835 24.9192 164.032 23.5336 164.424 22.3688C164.829 21.1916 165.503 19.99 166.447 18.7638L168.25 20.18C167.796 20.8422 167.459 21.4123 167.238 21.8905C167.03 22.3688 166.821 23.0064 166.613 23.8034H168.47V29.0821ZM190.517 37.9474H174.387C174.62 39.3698 175.239 40.504 176.245 41.35C177.262 42.1838 178.556 42.6007 180.125 42.6007C182.002 42.6007 183.614 41.9447 184.963 40.6327L189.193 42.6191C188.139 44.1151 186.876 45.2248 185.404 45.9482C183.933 46.6594 182.185 47.015 180.162 47.015C177.023 47.015 174.467 46.0279 172.493 44.0538C170.518 42.0674 169.531 39.5843 169.531 36.6047C169.531 33.5515 170.512 31.0195 172.474 29.0085C174.448 26.9853 176.919 25.9737 179.886 25.9737C183.038 25.9737 185.6 26.9853 187.575 29.0085C189.549 31.0195 190.536 33.6803 190.536 36.991L190.517 37.9474ZM185.478 33.993C185.147 32.8771 184.491 31.9698 183.51 31.2708C182.541 30.5719 181.413 30.2224 180.125 30.2224C178.728 30.2224 177.501 30.6148 176.447 31.3996C175.785 31.8901 175.172 32.7545 174.608 33.993H185.478ZM191.55 26.4887H196.59V28.7878C197.448 27.8437 198.399 27.1386 199.441 26.6727C200.495 26.2067 201.642 25.9737 202.88 25.9737C204.131 25.9737 205.259 26.2803 206.264 26.8934C207.27 27.5065 208.079 28.4016 208.692 29.5787C209.489 28.4016 210.464 27.5065 211.617 26.8934C212.782 26.2803 214.051 25.9737 215.424 25.9737C216.846 25.9737 218.097 26.3048 219.176 26.9669C220.255 27.6291 221.028 28.4935 221.494 29.5603C221.972 30.6271 222.211 32.3621 222.211 34.7654V46.5H217.153V36.3472C217.153 34.0788 216.871 32.5461 216.307 31.749C215.743 30.9398 214.897 30.5351 213.769 30.5351C212.91 30.5351 212.138 30.7804 211.451 31.2708C210.777 31.7613 210.274 32.4418 209.943 33.3124C209.612 34.1707 209.446 35.5563 209.446 37.4692V46.5H204.388V36.807C204.388 35.0168 204.254 33.7232 203.984 32.9262C203.726 32.1169 203.334 31.5161 202.807 31.1237C202.279 30.7313 201.642 30.5351 200.894 30.5351C200.06 30.5351 199.3 30.7865 198.613 31.2892C197.939 31.7797 197.43 32.4725 197.087 33.3676C196.755 34.2627 196.59 35.6728 196.59 37.5979V46.5H191.55V26.4887ZM255.077 24.208L251.472 27.6475C249.02 25.0602 246.261 23.7666 243.196 23.7666C240.608 23.7666 238.426 24.6495 236.648 26.4152C234.882 28.1809 233.999 30.3573 233.999 32.9446C233.999 34.7471 234.392 36.3472 235.176 37.7451C235.961 39.1429 237.071 40.2403 238.505 41.0374C239.94 41.8344 241.534 42.2329 243.288 42.2329C244.783 42.2329 246.151 41.957 247.389 41.4052C248.628 40.8412 249.989 39.8234 251.472 38.352L254.967 41.9938C252.968 43.9434 251.08 45.2983 249.302 46.0586C247.524 46.8065 245.495 47.1805 243.214 47.1805C239.008 47.1805 235.563 45.8501 232.877 43.1893C230.204 40.5162 228.868 37.0952 228.868 32.9262C228.868 30.2286 229.475 27.8314 230.689 25.7346C231.915 23.6379 233.662 21.9519 235.93 20.6766C238.211 19.4014 240.664 18.7638 243.288 18.7638C245.519 18.7638 247.665 19.2359 249.725 20.18C251.797 21.1242 253.581 22.4668 255.077 24.208ZM255.503 18.7638H260.524V46.5H255.503V18.7638ZM282.12 37.9474H265.99C266.223 39.3698 266.842 40.504 267.848 41.35C268.865 42.1838 270.159 42.6007 271.729 42.6007C273.605 42.6007 275.217 41.9447 276.566 40.6327L280.796 42.6191C279.742 44.1151 278.479 45.2248 277.007 45.9482C275.536 46.6594 273.789 47.015 271.765 47.015C268.626 47.015 266.07 46.0279 264.096 44.0538C262.121 42.0674 261.134 39.5843 261.134 36.6047C261.134 33.5515 262.115 31.0195 264.077 29.0085C266.051 26.9853 268.522 25.9737 271.489 25.9737C274.641 25.9737 277.203 26.9853 279.178 29.0085C281.152 31.0195 282.139 33.6803 282.139 36.991L282.12 37.9474ZM277.081 33.993C276.75 32.8771 276.094 31.9698 275.113 31.2708C274.144 30.5719 273.016 30.2224 271.729 30.2224C270.331 30.2224 269.105 30.6148 268.05 31.3996C267.388 31.8901 266.775 32.7545 266.211 33.993H277.081ZM298.731 26.4887H303.734V46.5H298.731V44.3848C297.75 45.3167 296.763 45.9911 295.77 46.408C294.789 46.8127 293.722 47.015 292.57 47.015C289.982 47.015 287.745 46.0157 285.856 44.017C283.968 42.006 283.024 39.5108 283.024 36.5311C283.024 33.4412 283.937 30.9091 285.764 28.935C287.591 26.9608 289.811 25.9737 292.423 25.9737C293.624 25.9737 294.752 26.2006 295.807 26.6543C296.861 27.1079 297.836 27.7885 298.731 28.6958V26.4887ZM293.453 30.6087C291.895 30.6087 290.602 31.1605 289.572 32.264C288.542 33.3553 288.027 34.7593 288.027 36.476C288.027 38.2049 288.548 39.6273 289.59 40.7431C290.645 41.8589 291.938 42.4168 293.471 42.4168C295.053 42.4168 296.365 41.8712 297.407 40.7799C298.449 39.6763 298.97 38.2355 298.97 36.4576C298.97 34.7164 298.449 33.3063 297.407 32.2273C296.365 31.1482 295.047 30.6087 293.453 30.6087ZM304.667 26.4887H309.67V28.5303C310.81 27.5739 311.84 26.9118 312.76 26.5439C313.692 26.1638 314.642 25.9737 315.611 25.9737C317.597 25.9737 319.283 26.6665 320.669 28.0521C321.834 29.2292 322.416 30.9704 322.416 33.2756V46.5H317.45V37.7267C317.45 35.3356 317.34 33.7477 317.119 32.963C316.91 32.1782 316.536 31.5835 315.997 31.1789C315.47 30.762 314.814 30.5535 314.029 30.5535C313.011 30.5535 312.134 30.8968 311.399 31.5835C310.675 32.2579 310.173 33.1959 309.891 34.3976C309.743 35.0229 309.67 36.3779 309.67 38.4624V46.5H304.667V26.4887Z" fill="black"/>
</svg>
