<svg width="64" height="64" viewBox="0 0 64 64" fill="none" xmlns="http://www.w3.org/2000/svg">
<circle cx="33.2803" cy="32" r="24" stroke="black" stroke-width="3.5"/>
<path d="M24.6396 9.19922L24.6396 54.7992" stroke="black" stroke-width="3.5"/>
<path d="M16.96 14L16.96 50" stroke="black" stroke-width="3.5"/>
<mask id="mask0_964_835" style="mask-type:alpha" maskUnits="userSpaceOnUse" x="30" y="6" width="53" height="52">
<path d="M80.3198 32C80.3198 45.2548 69.5747 56 56.3198 56C43.065 56 32.3198 45.2548 32.3198 32C32.3198 18.7452 43.065 8 56.3198 8C69.5747 8 80.3198 18.7452 80.3198 32Z" stroke="black" stroke-width="3.5"/>
<path d="M72.6398 32C72.6398 41.0133 65.3331 48.32 56.3198 48.32C47.3065 48.32 39.9998 41.0133 39.9998 32C39.9998 22.9867 47.3065 15.68 56.3198 15.68C65.3331 15.68 72.6398 22.9867 72.6398 32Z" stroke="black" stroke-width="3.5"/>
<path d="M64.9598 32C64.9598 36.7717 61.0916 40.64 56.3198 40.64C51.5481 40.64 47.6798 36.7717 47.6798 32C47.6798 27.2283 51.5481 23.36 56.3198 23.36C61.0916 23.36 64.9598 27.2283 64.9598 32Z" stroke="black" stroke-width="3.5"/>
</mask>
<g mask="url(#mask0_964_835)">
<circle cx="33.2803" cy="32" r="24" fill="black" stroke="black" stroke-width="2.66667"/>
</g>
</svg>
